<?xml version="1.0" standalone="no"?>
<!DOCTYPE svg PUBLIC "-//W3C//DTD SVG 20010904//EN"
 "http://www.w3.org/TR/2001/REC-SVG-20010904/DTD/svg10.dtd">
<svg version="1.0" xmlns="http://www.w3.org/2000/svg"
 width="1280.000000pt" height="1272.000000pt" viewBox="0 0 1280.000000 1272.000000"
 preserveAspectRatio="xMidYMid meet">
<g transform="translate(0.000000,1272.000000) scale(0.100000,-0.100000)"
fill="#000000" stroke="none">
<path d="M6080 12709 c-47 -4 -170 -15 -275 -24 -1662 -139 -3212 -953 -4306
-2260 -846 -1012 -1369 -2285 -1469 -3570 -6 -77 -15 -181 -20 -232 -13 -118
-13 -385 0 -488 5 -44 14 -150 20 -235 76 -1040 449 -2082 1078 -3010 112
-166 281 -391 399 -533 40 -48 70 -93 67 -100 -3 -8 16 -32 43 -56 26 -24 156
-150 288 -280 243 -241 385 -369 575 -520 58 -46 139 -117 180 -157 86 -83
214 -174 245 -174 12 0 66 -28 121 -63 608 -387 1124 -611 1834 -798 69 -18
152 -45 185 -61 76 -35 134 -46 265 -49 58 -1 166 -10 240 -20 707 -94 1456
-80 2097 41 636 119 1306 366 1853 680 69 40 136 77 150 82 14 5 34 18 45 28
34 31 306 203 384 242 144 72 690 541 963 826 231 242 585 698 755 973 423
686 666 1285 857 2114 61 263 86 429 96 625 5 101 15 261 21 355 22 315 -8
912 -62 1247 -145 912 -494 1815 -996 2583 -474 722 -1110 1362 -1813 1820
-871 569 -1946 924 -3010 995 -91 6 -201 15 -245 20 -94 12 -443 11 -565 -1z"/>
</g>
</svg>
